<svg width="162" height="174" viewBox="0 0 162 174" fill="none" xmlns="http://www.w3.org/2000/svg">
<path fill-rule="evenodd" clip-rule="evenodd" d="M67.4253 71.1185C65.7543 71.8012 64.5283 71.9364 61.8325 71.7369C57.9944 71.4522 56.4879 72.1701 56.4879 74.284C56.4879 75.4704 58.0905 76.8557 59.4629 76.8557C59.9365 76.8557 61.3869 77.3952 62.6856 78.054C64.7162 79.0843 65.0476 79.4499 65.0476 80.6616C65.0476 82.6578 63.5349 83.4904 59.7606 83.5728C58.0553 83.6095 56.354 82.725 54.8767 81.2036C54.458 80.7724 53.8947 80.6549 54.3703 81.6168C56.2041 85.3262 60.6826 85.7104 64.6306 84.2255C65.7181 83.8161 67.296 83.6737 68.9104 83.8394C71.894 84.1455 77.8976 81.7558 79.0983 78.7506C79.5739 77.5604 78.8606 77.5604 77.9095 78.7506C75.6404 81.5902 68.8377 82.434 67.9869 81.9079C67.7359 81.7527 67.3887 81.06 67.2156 80.3688C66.8528 78.9224 67.9988 77.4385 70.746 75.7969C72.7252 74.6139 75.2122 74.3626 74.5584 72.5067C74.3376 71.88 74.09 71.695 73.5175 71.1613C72.2387 69.9687 70.2729 69.9545 67.4253 71.1185Z" fill="#8D8D8F"/>
<path fill-rule="evenodd" clip-rule="evenodd" d="M89.6788 0.478544C85.1692 1.13125 81.6036 4.05678 80.2807 8.18966C79.8536 9.52412 79.4984 9.92974 78.9144 9.74931C77.1098 9.19181 69.8858 7.62836 67.9009 7.36604C66.0815 7.12514 66.3312 7.2832 69.5653 8.42056C74.6945 10.224 80.4119 13.339 85.2115 16.9458C94.7989 24.1489 104.391 37.1879 108.675 48.841C110.177 52.9253 110.395 54.0612 110.396 57.8027C110.397 61.0996 110.155 62.7059 109.346 64.7692C108.267 67.5234 103.863 74.2276 103.134 74.2276C102.909 74.2276 103.26 72.9046 103.912 71.2873C104.565 69.6701 105.208 67.0459 105.343 65.4553C105.617 62.1989 105.144 62.2627 103.835 65.6581C102.703 68.5946 100.142 72.677 98.0849 74.8227C96.1062 76.887 95.7604 77.0208 96.2398 75.5368C97.4719 71.7201 97.762 70.4142 97.4229 70.2047C97.2113 70.0738 95.9925 71.2802 94.7147 72.885C92.465 75.7115 84.833 82.7971 84.0389 82.7971C83.8234 82.7971 84.0764 81.8263 84.6005 80.6395C85.125 79.4531 85.6757 77.0427 85.825 75.2835L86.096 72.0852L88.6616 70.2709C94.3728 66.2323 95.2102 62.3412 91.7507 55.9203C87.6981 48.3987 82.4729 41.893 79.448 40.6023C74.1186 38.3286 70.5754 41.4574 69.9443 48.9947C69.4065 55.419 71 59.1667 74.8043 60.424C76.8273 61.0925 80.3087 64.9068 81.8885 68.1852C82.6004 69.6629 83.2937 72.3118 83.6123 74.7727C84.0498 78.151 84.0237 78.239 83.4753 80.0868C83.4531 80.1612 83.4302 80.2386 83.4064 80.3191C82.1608 84.5324 80.0113 85.6765 76.9863 87.2865C76.5645 87.511 76.1256 87.7446 75.6698 87.9968C73.4288 89.2369 71.1695 89.759 69.3732 90.1742C69.2153 90.2107 69.0609 90.2463 68.9105 90.2816C66.7373 90.7909 65.3547 90.6119 63.248 90.3392C63.1024 90.3204 62.9534 90.3011 62.8005 90.2816C58.349 89.713 56.1342 88.6139 52.0754 86.1511C47.6981 83.495 46.5597 80.5314 47.4641 74.1471C48.1418 69.3639 49.6568 66.3403 53.0636 62.9716C54.6519 61.4014 56.0999 59.5233 56.2821 58.7982C57.3497 54.5387 54.243 45.5422 51.1515 43.9416C49.3187 42.9927 46.1474 43.2698 44.4521 44.5267C40.6159 47.3708 34.6131 61.0406 34.6131 66.9321C34.6131 69.4272 34.7415 69.7362 36.4554 71.3687C37.5672 72.4275 39.5935 73.602 41.5674 74.3314L44.8372 75.5397L45.7883 78.967C46.4089 81.2041 47.2939 83.0527 48.3358 84.2906C49.2136 85.3336 49.8038 86.3149 49.6469 86.472C49.2988 86.8205 42.003 84.8585 40.2245 83.9378C38.2268 82.9037 37.6628 83.1518 38.9291 84.5072L40.0818 85.7407L37.2286 84.4862C30.2719 81.4274 26.2769 77.9582 23.6011 72.6513C21.9923 69.4606 21.4507 69.3554 22.2676 72.3913C23.0285 75.2217 23.8129 76.4606 25.6002 78.5126C26.1914 79.1913 28.3121 80.4903 29.9729 81.5076C31.6517 82.5359 32.8605 83.2764 31.5445 82.7973C28.929 81.8451 24.9535 79.6528 23.6981 78.7506C20.5562 76.4929 18.9888 75.2283 17.6478 72.9374C16.1902 70.4475 15.1341 66.3675 15.1236 63.1868C15.1193 61.9585 14.902 60.8211 14.6405 60.6592C14.007 60.2674 14.0346 66.6526 14.6785 69.4668C14.9481 70.6451 15.7204 72.7408 16.3947 74.1238C16.9667 75.2969 17.7205 76.1477 18.6588 77.2067C18.8268 77.3962 19.0006 77.5925 19.1804 77.7984C24.4586 83.8444 30.1795 85.2892 36.9394 86.9964C39.4221 87.6234 42.0448 88.2857 44.8372 89.2244C61.8326 94.9374 72.4409 95.6515 88.6616 85.7407C91.2392 84.1658 93.672 83.2003 95.9683 82.289C100.431 80.5179 104.378 78.9515 107.869 73.5137C110.524 69.3766 112.359 63.1915 112.643 61.8637C113.876 56.1069 110.075 44.5243 103.108 32.8084L100.701 28.7617L102.253 28.1232C107.794 25.8433 110.388 20.6364 109.099 14.3797C107.719 7.67311 101.904 1.72541 95.6977 0.670882C95.3204 0.60677 95.0097 0.538109 94.7175 0.473512C94.2089 0.361106 93.756 0.261006 93.1046 0.218603C91.9376 0.142643 91.3356 0.232372 90.2125 0.399786C90.047 0.424447 89.8703 0.450793 89.6788 0.478544ZM80.2404 52.1668C82.6476 55.2309 81.5115 57.5746 77.6492 57.5132C75.8592 57.4847 75.826 57.459 77.0852 57.0805C79.0287 56.4968 79.7901 55.7094 79.782 54.293C79.7734 52.8148 79.412 52.1992 78.1247 51.4684C77.1927 50.9395 77.1946 50.9281 78.2089 50.9138C78.7786 50.9062 79.6926 51.4698 80.2404 52.1668ZM77.8869 52.8038C77.8869 53.3328 77.5698 53.756 77.1736 53.756C76.4499 53.756 76.1983 52.7491 76.7775 52.1692C77.38 51.5655 77.8869 51.8555 77.8869 52.8038ZM50.7065 60.2169C47.0815 61.0348 45.146 56.0859 48.5533 54.7115C49.5776 54.2983 49.5781 54.2921 48.5961 54.2621C47.1271 54.2178 45.9449 55.815 45.6758 58.2097C45.4613 60.1112 45.5498 60.3569 46.5617 60.6782C48.101 61.1676 50.1035 61.0658 51.1226 60.4469C51.8278 60.0184 51.7584 59.9798 50.7065 60.2169ZM50.2215 56.2949C50.3104 56.7539 50.0717 57.0886 49.6551 57.0886C48.772 57.0886 48.2385 56.3126 48.6569 55.6351C49.0868 54.9386 50.0365 55.3385 50.2215 56.2949Z" fill="#8D8D8F"/>
<path d="M19.4183 9.71853C21.1203 9.08538 22.1396 8.87901 23.9373 8.6219C25.8599 8.34693 26.9987 8.06317 28.9067 8.42623C32.0691 9.02797 34.6084 11.0333 35.8448 12.8814C36.3446 13.6274 36.9557 14.2392 37.203 14.2397C37.4503 14.2406 39.5455 13.2628 41.858 12.0668C45.4089 10.2306 50.7326 8.05203 51.6684 8.05203C51.8125 8.05203 49.9232 9.3784 47.4689 10.9995C40.236 15.7784 33.1105 23.3952 28.0213 31.789C27.17 33.1921 27.1527 33.4008 26.6203 34.4461C23.8469 39.8915 22.1441 42.9718 20.5648 48.8761C19.0506 54.5371 18.3626 59.0891 18.6037 63.7537C18.8129 67.7933 18.7706 68.1242 18.208 66.8483C17.8614 66.0627 17.3069 63.301 16.9749 60.7106C16.3791 56.0588 16.4561 54.7767 17.8114 46.7652C18.1234 44.6521 18.9291 40.1878 19.6561 39.2357C16.8611 39.2216 14.1454 37.9079 11.8096 35.427C10.2692 33.7908 9.65934 32.5636 8.95642 30.4281C7.09904 24.7855 8.25748 19.9327 12.0474 15.1935C13.2409 13.7011 14.0003 12.7537 15.6139 11.6229C16.9747 10.6692 17.8611 10.2978 19.4183 9.71853Z" fill="#8D8D8F"/>
<path fill-rule="evenodd" clip-rule="evenodd" d="M19.4499 76.0493C21.9054 78.968 25.1776 82.1802 27.9209 82.964C26.2795 81.5464 23.0145 77.3296 22.3005 71.2982C22.3762 71.1779 22.4518 71.0581 22.5273 70.9389C24.444 75.4997 30.1293 83.7398 40.3302 86.0663C39.6143 85.6686 37.5459 83.1832 38.5086 83.3758C40.8155 84.4099 45.9622 86.6391 50.3532 87.0209C64.1943 92.9869 74.5143 94.3507 83.7564 81.8354C83.8583 82.0052 83.8381 82.3458 83.8155 82.7263C83.7852 83.2371 83.7507 83.8197 84.0015 84.1572C84.0278 84.0964 84.2812 83.8922 84.7223 83.5369C86.5909 82.0315 91.8279 77.8126 97.427 70.2828C97.7133 69.8977 97.795 74.2775 95.6949 77.7139C97.6836 76.6798 102.074 72.1316 105.129 63.1587C105.706 62.0034 106.386 71.3183 103.331 75.3275C104.879 73.8576 108.247 69.9198 109.66 65.6656C110.319 66.2523 110.951 66.8688 111.555 67.5162C130.074 87.3711 131.521 108.403 129.931 116.438C146.543 118.941 146.012 134.248 145.927 136.698C145.923 136.817 145.919 136.905 145.919 136.961C139.443 158.48 131.686 160.245 121.367 162.593C119.9 162.927 118.38 163.273 116.805 163.689C98.528 168.517 91.4298 166.393 89.8388 163.689C83.3478 166.552 70.2703 166.791 64.5429 166.552C62.8247 172.28 53.4859 173.234 49.0312 172.996C25.9308 175.096 12.6782 169.575 8.93952 166.552C-8.62445 145.361 3.68942 133.063 12.0418 129.563C1.34722 115.898 9.9907 92.5823 19.4499 76.0493Z" fill="#8D8D8F"/>
<path d="M53.3051 110.423C53.3051 110.423 57.4257 114.84 58.8237 117.672C59.5109 119.064 58.8179 114.585 58.8179 114.585C58.8179 114.585 63.4917 122.24 65.9602 125.042C78.4153 139.179 68.0396 149.527 65.2197 152.938C62.9638 155.668 64.0201 158.359 64.8303 159.363C75.065 166.097 89.7968 158.993 87.7692 157.171C78.0817 148.464 82.8774 134.664 86.3361 129.859C90.0984 123.618 86.5236 126.765 86.5236 126.765C86.5236 126.765 86.5405 126.475 86.5525 126.29C87.0482 118.577 90.5958 110.532 90.812 106.965C91.6484 93.1638 82.6456 96.6781 79.9181 102.483C76.5233 95.7817 76.3561 101.153 76.6969 104.676C72.8263 96.4173 72.0187 102.164 72.0988 106.069C69.6738 99.0443 69.7587 104.176 70.1043 107.62C66.0674 98.9691 64.5447 102.666 64.2879 105.596C61.6274 99.3209 61.5438 103.837 61.8345 106.88C55.8464 99.066 56.5896 104.572 57.7097 108.302C53.3729 104.6 53.7553 108.221 54.4886 110.495C52.8421 109.44 53.0136 110.007 53.3051 110.423Z" fill="white"/>
<path d="M56.1367 142.804C55.644 141.43 52.7836 140.228 51.415 139.799C48.3357 138.726 52.4152 139.943 53.2626 139.155C54.3345 138.159 49.8548 136.108 52.6468 136.794C56.1367 137.653 56.7526 144.521 56.1367 142.804Z" fill="white"/>
<path d="M60.4064 139.252C59.8847 137.954 56.8561 136.819 55.407 136.414C52.1465 135.4 56.466 136.549 57.3632 135.806C58.4982 134.865 53.755 132.927 56.7112 133.576C60.4064 134.387 61.0585 140.873 60.4064 139.252Z" fill="white"/>
<path d="M61.9069 134.999C61.6869 133.602 59.6371 132.165 58.6397 131.622C56.4077 130.292 59.388 131.852 60.1258 131.151C61.059 130.265 57.8681 127.848 59.9244 128.772C62.4947 129.926 62.1818 136.744 61.9069 134.999Z" fill="white"/>
<path d="M45.6771 114.113C36.1628 103.521 35.5862 97.3782 35.2979 94.2007C36.379 95.4717 41.2539 106.244 49.1368 111.995C59.2998 119.409 61.9667 126.399 61.6784 128.094C56.4888 118.35 51.7316 121.527 47.6232 114.96C44.3364 109.707 44.9563 112.207 45.6771 114.113Z" fill="white"/>
<path d="M33.0161 133.855C23.5645 125.821 13.2726 126.456 14.3227 109.542C21.674 127.935 26.505 120.324 34.4865 129.415C40.9678 136.798 45.7585 141.114 47.9289 141.889C47.7189 141.044 46.6687 139.775 47.2988 139.564C47.9289 139.141 51.1495 142.735 51.7096 143.792C39.3173 143.792 35.7467 130.895 27.9753 127.724C30.4957 130.092 32.386 132.798 33.0161 133.855Z" fill="white"/>
<path d="M121.357 60.7892C118.607 74.291 102.675 90.7126 97.1614 95.5124C88.4079 130.626 107.708 115.386 113.418 114.412C119.128 113.438 134.212 115.952 142.684 93.8098C146.633 83.4903 152.096 69.4256 155.765 63.0858C160.812 52.9111 157.207 52.5875 154.773 53.6975C157.767 43.9356 153.506 45.1201 151.002 46.9326C154.204 42.0295 149.166 40.1686 145.965 43.1367C148.773 36.762 140.815 36.6202 137.958 40.01C138.021 36.3009 134.584 37.0011 131.866 39.0108C128.103 41.7933 124.107 47.2874 121.357 60.7892Z" fill="#8D8D8F"/>
<path d="M143.088 41.4513C143.284 41.173 143.595 40.7262 143.791 40.4478C144.043 40.0759 144.102 39.9218 143.985 39.8525C143.891 39.797 143.549 39.8944 143.202 40.0524C142.753 40.2762 142.513 40.4965 142.264 40.9173C141.967 41.42 141.89 41.4693 141.509 41.4178C141.262 41.3818 140.791 41.4822 140.463 41.6354C140.124 41.7817 139.527 42.202 139.117 42.5748C138.668 42.9873 138.201 43.5631 137.904 44.0657C137.531 44.697 137.403 45.0472 137.368 45.6417C137.334 46.0474 137.407 46.5947 137.518 46.8341C137.623 47.0853 137.892 47.4334 138.099 47.6188C138.318 47.8111 138.742 48.0302 139.035 48.1242C139.327 48.2182 139.899 48.2408 140.286 48.2015C140.68 48.1504 141.237 47.9587 141.518 47.7778C141.894 47.5427 142.211 47.1938 142.662 46.4829C143.01 45.9473 143.362 45.272 143.455 44.9801C143.537 44.6814 143.532 44.0475 143.432 43.547C143.344 43.0534 143.15 42.4974 143.011 42.3047C142.789 41.9843 142.788 41.905 143.088 41.4513Z" fill="white"/>
<path d="M148.528 44.9649C148.673 44.5306 148.804 43.9613 148.835 43.6954C148.865 43.4296 148.837 43.2083 148.777 43.204C148.709 43.2113 148.285 43.6074 147.83 44.1109C147.091 44.9049 146.906 45.0317 146.305 45.1654C145.939 45.2489 145.518 45.426 145.386 45.5688C145.254 45.7117 144.736 46.3204 144.23 46.936C143.712 47.5447 143.052 48.4478 142.755 48.9504C142.205 49.8553 142.198 49.867 142.397 50.5208C142.512 50.8884 142.796 51.3716 143.025 51.6012C143.265 51.8376 143.708 52.1312 144.022 52.2694C144.343 52.3959 144.836 52.4981 145.105 52.499C145.392 52.4952 145.816 52.3671 146.039 52.2307C146.268 52.0827 146.69 51.6376 146.973 51.2376C147.257 50.8376 147.735 49.9215 148.054 49.195C148.372 48.4685 148.666 47.6489 148.704 47.3714C148.741 47.0938 148.743 46.7163 148.713 46.5253C148.677 46.3461 148.56 46.088 148.459 45.965C148.329 45.8096 148.343 45.5182 148.528 44.9649Z" fill="white"/>
<path d="M153.698 48.319C153.749 48.0181 153.767 47.6661 153.738 47.5544C153.716 47.431 153.664 47.3054 153.617 47.2777C153.558 47.2431 153.285 47.5708 152.999 48.0011C152.502 48.7635 152.469 48.7917 151.64 48.9639C150.908 49.1309 150.666 49.272 149.846 50.0175C149.054 50.7162 148.76 51.079 148.194 52.0375C147.586 53.0661 147.504 53.2857 147.486 53.9057C147.484 54.2832 147.587 54.8327 147.727 55.1046C147.903 55.4766 148.143 55.713 148.53 55.9417C148.846 56.1288 149.275 56.2873 149.506 56.2977C149.749 56.3151 150.124 56.2688 150.355 56.2C150.578 56.1429 151.041 55.8957 151.375 55.6516C151.855 55.3204 152.11 54.9975 152.612 54.1744C153.012 53.4965 153.296 52.8284 153.436 52.2963C153.59 51.6616 153.582 51.2468 153.41 50.5462C153.229 49.8084 153.218 49.5334 153.402 49.2481C153.526 49.0377 153.665 48.6152 153.698 48.319Z" fill="white"/>
<path d="M135.521 41.0021C135.745 40.4882 136.012 39.9834 136.109 39.899C136.231 39.7818 136.23 39.6862 136.105 39.6123C135.987 39.543 135.668 39.6543 135.316 39.9032C134.963 40.1521 134.588 40.5456 134.353 40.943C134.01 41.4972 133.894 41.5864 133.449 41.6703C133.165 41.7231 132.732 41.8932 132.495 42.0529C132.247 42.2057 131.709 42.7399 131.314 43.2478C130.681 44.0249 130.527 44.3123 130.222 45.2042C129.987 45.8697 129.878 46.4832 129.897 46.9049C129.933 47.2729 130.115 47.822 130.319 48.1472C130.529 48.4607 130.882 48.827 131.105 48.9587C131.328 49.0903 131.8 49.2277 132.146 49.2585C132.606 49.3096 132.979 49.2144 133.43 48.9603C134.02 48.6309 134.159 48.4764 134.665 47.5927C135.128 46.8095 135.308 46.3168 135.533 45.2669C135.681 44.5343 135.812 43.697 135.819 43.4173C135.816 43.1003 135.684 42.7072 135.472 42.424L135.466 42.4154C135.132 41.9549 135.123 41.9423 135.521 41.0021Z" fill="white"/>
<path d="M155.54 56.8507C155.622 56.5519 155.66 56.1648 155.624 55.9856C155.587 55.8063 155.528 55.6924 155.47 55.737C155.431 55.7769 155.123 56.163 154.791 56.5657C154.266 57.186 154.117 57.3033 153.795 57.2864C153.59 57.2595 153.098 57.395 152.712 57.5928C152.322 57.772 151.588 58.2373 151.073 58.6269C150.449 59.094 150.016 59.5321 149.788 59.9179C149.56 60.3036 149.449 60.6794 149.449 61.0267C149.454 61.3133 149.624 61.7762 149.829 62.0711C150.023 62.359 150.371 62.7068 150.594 62.8384C150.817 62.9701 151.308 63.1027 151.673 63.1287C152.056 63.15 152.529 63.0985 152.743 63.0041C152.957 62.9098 153.372 62.5557 153.67 62.2115C153.968 61.8673 154.377 61.2569 154.569 60.8504C154.799 60.3551 154.943 59.7623 154.986 59.0466C155.014 58.4639 155.123 57.8503 155.22 57.6867C155.317 57.523 155.458 57.1494 155.54 56.8507Z" fill="white"/>
<path d="M142.267 57.9186C141.679 57.0664 141.116 56.277 141.008 56.1657C140.9 56.0544 140.25 55.6547 139.556 55.2762C138.491 54.6945 138.075 54.5429 136.758 54.254C135.897 54.0767 134.628 53.8947 133.911 53.8496C133.194 53.8044 132.119 53.8311 131.51 53.8973C130.901 53.9634 129.997 54.1547 129.473 54.3183C128.961 54.4888 128.259 54.8468 127.923 55.1212C127.503 55.4567 127.23 55.7844 127.091 56.1278C126.962 56.3988 126.825 57.2478 126.768 57.9869C126.703 58.9265 126.744 59.5811 126.916 60.0929C127.074 60.5489 127.374 61.0577 127.704 61.4102C128.069 61.7834 128.447 62.0541 128.88 62.2313C129.23 62.3902 130.381 62.771 131.451 63.1032C132.513 63.4472 133.948 63.9639 134.635 64.2749C135.499 64.6595 136.133 65.0337 136.701 65.4641C137.141 65.8184 137.661 66.3307 137.838 66.5931C138.053 66.9252 138.147 67.2486 138.101 67.5682C138.043 67.96 137.946 68.1237 137.409 68.6579C137.069 68.9929 136.597 69.4709 136.354 69.7215C136.057 70.0354 135.883 70.358 135.769 70.7641C135.681 71.0745 135.674 71.6222 135.747 71.9807C135.808 72.3323 136.074 72.8996 136.301 73.2386C136.54 73.5846 137.086 74.1597 137.519 74.5256C137.97 74.8868 138.723 75.3792 139.243 75.6234C139.745 75.8725 140.529 76.1783 140.972 76.3134C141.421 76.4369 142.216 76.5911 142.755 76.6419C143.295 76.6926 144.04 76.691 144.422 76.633C144.804 76.5751 145.463 76.3175 145.902 76.0565C146.322 75.8003 146.953 75.3215 147.275 74.9912C147.608 74.6678 148.063 74.0851 148.291 73.6993C148.519 73.3136 148.828 72.5498 148.968 72.0177C149.116 71.4739 149.282 70.3894 149.334 69.6317C149.381 68.8553 149.41 67.8158 149.394 67.3334C149.378 66.8511 149.279 66.0825 149.182 65.6309C149.068 65.1538 148.783 64.5121 148.494 64.0894C148.133 63.5763 147.582 63.0618 146.575 62.2771C145.792 61.673 144.753 60.8069 144.243 60.3319C143.699 59.8057 142.905 58.8474 142.267 57.9186Z" fill="white"/>
<path d="M131.857 67.049C131.711 66.868 131.48 66.5895 131.308 66.425C131.148 66.2674 130.612 65.888 130.138 65.5922C129.658 65.3081 128.891 64.9183 128.427 64.739C127.971 64.548 127.238 64.3678 126.813 64.3374C126.292 64.2819 125.812 64.345 125.365 64.5385C125.019 64.6965 124.483 65.0419 124.202 65.3021C123.915 65.574 123.335 66.2879 122.92 66.91C122.267 67.8806 122.118 68.1867 121.899 69.0665C121.768 69.6358 121.644 70.3823 121.644 70.7295C121.633 71.0698 121.754 71.6145 121.904 71.9237C122.059 72.2515 122.352 72.6927 122.561 72.927C122.771 73.1613 123.248 73.506 123.613 73.6905C124.068 73.9118 124.662 74.0578 125.421 74.1121C126.143 74.1758 126.96 74.1062 127.71 73.9344C128.343 73.7726 129.2 73.4744 129.616 73.2788C130.027 73.0645 130.608 72.6979 130.893 72.4563C131.185 72.203 131.626 71.6437 131.909 71.1644C132.289 70.5215 132.426 70.1293 132.477 69.5603C132.523 69.1616 132.448 68.4861 132.328 68.0999C132.203 67.695 131.991 67.2231 131.857 67.049Z" fill="white"/>
<path d="M113.215 89.9282C104.009 98.4015 101.855 97.8164 98.3895 101.475C97.8117 96.8538 107.476 92.3517 111.29 84.7235C115.141 77.0217 119.184 74.9038 120.34 74.9038C109.557 84.916 117.066 83.7608 110.265 89.9282C106.239 93.5796 111.553 90.5764 113.215 89.9282Z" fill="white"/>
<path d="M139.484 94.682C134.842 103.874 128.427 109.369 123.614 109.369C140.172 98.5867 129.285 103.524 135.225 95.0376C140.049 88.1462 142.616 83.4104 142.745 81.6352C142.301 81.9028 141.79 82.4739 141.392 82.7416C141.174 82.8878 140.75 83.1832 140.75 83.1832C140.75 83.1832 140.776 82.5094 140.898 82.1881C141.317 81.0926 142.849 78.9318 143.455 78.3696C146.59 87.1162 136.202 93.6837 135.392 100.164C136.827 97.642 138.718 95.4585 139.484 94.682Z" fill="white"/>
</svg>
